inDegrees=no
num_controls=7
num_derivatives=13
num_iterations=125
num_multipliers=7
num_parameters=0
num_slacks=7
num_states=26
objective=5.816766
objective_accelerations=0.647833
objective_balance=0.051091
objective_effort=0.515338
objective_height=4.520091
objective_ligament=0.082413
solver_duration=1443.351843
status=Solve_Succeeded
success=true
DataType=double
version=3
OpenSimVersion=4.4-2022-07-23-0e9fedc
endheader
time	/jointset/ground_pelvis/pelvis_tilt/value	/jointset/ground_pelvis/pelvis_tx/value	/jointset/ground_pelvis/pelvis_ty/value	/jointset/hip_l/hip_flexion_l/value	/jointset/hip_l/hip_adduction_l/value	/jointset/hip_l/hip_rotation_l/value	/jointset/back/lumbar_extension/value	/jointset/patellofemoral_l/patellar_flexion_l/value	/jointset/knee_l/knee_flexion_l/value	/jointset/knee_l/knee_adduction_l/value	/jointset/knee_l/knee_rotation_l/value	/jointset/ankle_l/ankle_angle_l/value	/jointset/subtalar_l/subtalar_angle_l/value	/jointset/ground_pelvis/pelvis_tilt/speed	/jointset/ground_pelvis/pelvis_tx/speed	/jointset/ground_pelvis/pelvis_ty/speed	/jointset/hip_l/hip_flexion_l/speed	/jointset/hip_l/hip_adduction_l/speed	/jointset/hip_l/hip_rotation_l/speed	/jointset/back/lumbar_extension/speed	/jointset/patellofemoral_l/patellar_flexion_l/speed	/jointset/knee_l/knee_flexion_l/speed	/jointset/knee_l/knee_adduction_l/speed	/jointset/knee_l/knee_rotation_l/speed	/jointset/ankle_l/ankle_angle_l/speed	/jointset/subtalar_l/subtalar_angle_l/speed	/forceset/tau_hip_flexion_l	/forceset/tau_hip_adduction_l	/forceset/tau_hip_rotation_l	/forceset/tau_knee_flexion_l	/forceset/tau_ankle_angle_l	/forceset/tau_subtalar_angle_l	/forceset/tau_lumbar_extension	lambda_cid13_p0	lambda_cid13_p1	lambda_cid13_p2	lambda_cid13_p3	lambda_cid13_p4	lambda_cid13_p5	lambda_cid14_p0	/jointset/ground_pelvis/pelvis_tilt/accel	/jointset/ground_pelvis/pelvis_tx/accel	/jointset/ground_pelvis/pelvis_ty/accel	/jointset/hip_l/hip_flexion_l/accel	/jointset/hip_l/hip_adduction_l/accel	/jointset/hip_l/hip_rotation_l/accel	/jointset/back/lumbar_extension/accel	/jointset/patellofemoral_l/patellar_flexion_l/accel	/jointset/knee_l/knee_flexion_l/accel	/jointset/knee_l/knee_adduction_l/accel	/jointset/knee_l/knee_rotation_l/accel	/jointset/ankle_l/ankle_angle_l/accel	/jointset/subtalar_l/subtalar_angle_l/accel	gamma_cid13_p0	gamma_cid13_p1	gamma_cid13_p2	gamma_cid13_p3	gamma_cid13_p4	gamma_cid13_p5	gamma_cid14_p0
1	-0.7571987948156274	-0.190684997028414	0.5724147089099139	2.094394974223357	-0.3084412173439809	0.09542526552825507	-0.4363290596602714	1.10870156667472	1.108701566674114	-0.1745227713452742	0.1745290055083323	-0.04738391958954987	-0.06922984963012113	-0.01279952508638465	0.0002142377328478164	-0.003358653253293548	0.01874481902912068	0.0005101356789798022	0.002786406657872883	-3.965011559155688e-05	0.007213405850894475	0.007213405850894602	2.170146642509239e-05	-7.571948394974957e-06	0.001803211879301202	0.000766734881307436	-0.4887199103343185	-0.007445759778269384	-0.01831629432316833	-0.2193010904540299	0.2447100739397889	0.02932967128093992	0.3785584551426724	30.94941671667433	-17.92783539729612	2.194127340267995	0.7718614865479322	-733.3677373417308	-40.41936023389364	-3.486256153653579	2.098460005017459	0.4017226891764955	1.721393481873793	-6.526364323831158	-0.2467404346095608	-1.553646008470719	-0.0242137123047294	-4.213206063194519	-4.213206063194408	-0.02932466052831706	0.01407399459623708	-0.02676882952725885	-0.1973771046067166	1.851621150905157e-11	1.63132518037992e-09	-4.024652425253102e-09	1.254573761588186e-09	3.169487759756598e-10	-2.773272071103862e-09	1.008586318589207e-09
1.01	-0.7572225659545361	-0.1906627968522847	0.5724671747105051	2.094256739274261	-0.3084476838401371	0.09537491296715757	-0.4363296186208895	1.108562955728479	1.10856295572797	-0.1745224342996929	0.174529073152612	-0.04736704232024595	-0.06923126461916321	0.008062424876596192	0.004232705534094116	0.01385863747307604	-0.04642537970969648	-0.001802486626910133	-0.01285385890421625	-6.154794843330627e-05	-0.0349453562664273	-0.03494535626642743	4.043905090233153e-05	1.889952302642583e-05	0.001579198815120037	-0.001047354439016505	-0.4890924932258035	-0.007385420078331995	-0.01832078938498022	-0.2192587274692919	0.2447803906347825	0.02936647128389722	0.3788948957167972	30.95714774339805	-17.94549763011262	2.19731580959721	0.685981578014156	-733.6727205931377	-40.43850224545403	-3.49184195682869	2.08263137714633	0.4029460777489531	1.722919368705712	-6.51738365474131	-0.2233819160151818	-1.568760854235386	0.01041129081342022	-4.218674802720417	-4.218674802720494	0.01668145056100638	-0.003400189926097564	-0.01917398231786312	-0.173069090920372	-3.536450554237924e-09	-4.239127156186488e-09	1.425051420231875e-08	5.190465684183235e-09	-5.513549047191207e-09	1.684737779481731e-08	-3.248753104274099e-09
1.02	-0.7570372038167716	-0.1906002045477128	0.5726920179184972	2.093465795136594	-0.3084772483168399	0.09516824894561317	-0.4363300787379424	1.108002464457721	1.108002464457308	-0.174522068181725	0.1745293387289178	-0.0473521964690742	-0.06925074935044342	0.02902713024788229	0.008292663421387743	0.03111682822686582	-0.1117970186818903	-0.004109460430258987	-0.02847588543259882	-1.98813977905369e-05	-0.07716265905252363	-0.07716265905252373	2.751594039201968e-05	3.201446080059853e-05	0.001396928252767049	-0.002847213566344916	-0.4894650761172852	-0.007325080378386869	-0.01832528444687206	-0.2192163644845513	0.2448507073297764	0.02940327128686243	0.3792313362909273	30.96177063923262	-17.96379093037606	2.20194761515913	0.5913475905857094	-734.0282727249619	-40.4365337296891	-3.514429538610508	2.119011086678493	0.4100207063859406	1.729573487357812	-6.566652370506431	-0.2456107341013377	-1.549998201729391	-0.01150083560772174	-4.224914196949418	-4.224914196949251	-0.03565679952582665	0.01140268786677437	-0.01842032916165863	-0.1945310660076109	-4.929580415592648e-09	-1.058972360654615e-08	3.055155488708463e-08	3.430367434470085e-09	-9.266487215188766e-09	3.557463082055714e-08	-7.60286433887593e-09
1.03	-0.7566415660128919	-0.1904967763233992	0.5730895834640285	2.092020189026977	-0.3085297901865245	0.09480547627491065	-0.4363299924501419	1.107019654292955	1.10701965429243	-0.1745219208224028	0.1745296789825736	-0.04733898363944244	-0.06928810429895041	0.05013020091334335	0.01240291427701738	0.04839683929962633	-0.177352829436334	-0.00639144532499698	-0.04407408127266087	2.772314329683845e-05	-0.1193941723857214	-0.1193941723857342	4.248048049664688e-06	3.513569991088116e-05	0.001251060042329243	-0.004615502848132931	-0.4893678394357863	-0.007213463931956333	-0.01834930308071643	-0.2192015464751262	0.2449537019090265	0.02949486896023189	0.379265509719501	31.00015930925384	-18.01332853020707	2.213312001315245	0.4526147333984396	-734.0405408079127	-40.50706424517921	-3.55423881687405	2.110419328308251	0.4130175118535769	1.727296057967231	-6.554340931167201	-0.2183757789692566	-1.564055326102448	0.01147872693825423	-4.221487256260169	-4.221487256262177	0.01467769516754654	-0.00538049762904697	-0.01185578170907063	-0.1667397386701168	-6.300650716698458e-09	-1.694521948663839e-08	4.683245142957697e-08	1.61214683605988e-09	-1.299822579486826e-08	5.42927675520094e-08	-1.195796304094448e-08
1.04	-0.7560340046479906	-0.1903519475431886	0.5736599653484337	2.089918165709158	-0.3086049285875191	0.09428685663561237	-0.4363297125913682	1.105614685523906	1.105614685523274	-0.1745219382461404	0.1745300209807077	-0.04732706663485955	-0.06934289451615631	0.07141184245192531	0.01657277460076808	0.06568009600160273	-0.2430804603209381	-0.00862876669210022	-0.05964527915103506	1.883280322535932e-05	-0.1615943799091258	-0.161594379909152	-5.440674052080789e-06	3.236335653478062e-05	0.001137763242922997	-0.006334267306149443	-0.4892706027543166	-0.007101847485537121	-0.01837332171470232	-0.2191867284656872	0.2450566964882782	0.02958646663359083	0.3792996831480426	31.0354199944078	-18.06352581889285	2.226160946506225	0.3043888051830823	-734.1041332734966	-40.55680760821508	-3.61150444461628	2.154725261302672	0.4219426000101312	1.730222613200973	-6.601016396538489	-0.2366780285743573	-1.544598609391803	-0.0227998118396039	-4.218653034990766	-4.218653034990697	-0.0329409654776741	0.01022397136945221	-0.01190604695537682	-0.1846261012532877	-7.960154701524063e-09	-2.31329456161273e-08	6.345627778662425e-08	5.275871338296482e-10	-1.661784400192473e-08	7.254793752309615e-08	-1.626253582423278e-08
1.05	-0.7552128929621956	-0.1901651142447008	0.5744031024415166	2.087158332250001	-0.3087021841407669	0.09361274741105478	-0.4363296478882366	1.103787950636934	1.103787950635971	-0.1745220296958132	0.1745302906201646	-0.04731620412624912	-0.06941461033021452	0.09282479408796615	0.02080463800568798	0.08293862252779749	-0.3088828426566358	-0.0108104266361123	-0.07516471256047536	-1.182885511334042e-07	-0.2037391806802958	-0.203739180680325	-1.202475744741055e-05	1.855760741982122e-05	0.001032386039479711	-0.007997904789529435	-0.4887055643383491	-0.006929132104270092	-0.01841502036601433	-0.219192127421826	0.245183303993507	0.02971709609638792	0.3790504980780903	31.1014579674124	-18.13801440395578	2.245110730300601	0.1158477959909972	-733.8176634959141	-40.66463082258019	-3.686657260147009	2.136722759098248	0.4254210295016452	1.722358575893141	-6.56934353287691	-0.2071287761200451	-1.553854972866587	0.009423324963248839	-4.210376920815748	-4.210376920816221	0.01559927626339007	-0.007654755064785565	-0.01020466920428065	-0.1555888536392404	-9.628672238965912e-09	-2.931542894090986e-08	8.009082070037637e-08	-5.340456653949637e-10	-2.023395844733674e-08	9.078863978292147e-08	-2.056552967255919e-08
1.06	-0.7541772232311712	-0.1899356397484099	0.5753185629805743	2.083740576091326	-0.3088209000532168	0.09278379599916425	-0.4363295994794546	1.101540171077724	1.101540171076433	-0.1745221637051042	0.1745303278207654	-0.04730646561210603	-0.06950263377545818	0.1143234514977345	0.02510101416139818	0.1001447851965057	-0.3746650002239974	-0.01292083853233507	-0.09061371661577218	1.55739320602154e-05	-0.2458033143568893	-0.2458033143569221	-1.395259948794356e-05	-1.412442220393433e-05	0.0009129643494175374	-0.009595793543265717	-0.4881405259223957	-0.006756416723022868	-0.01845671901755954	-0.2191975263779501	0.2453099114987305	0.02984772555916498	0.378801313008126	31.16431849687201	-18.21321180813316	2.265618906204482	-0.0827732887798561	-733.5835869322993	-40.75256581635929	-3.78014830306517	2.171866416048152	0.4348451501681775	1.719749841703655	-6.596971442871215	-0.2224284190164948	-1.530512738563152	-0.01587114936215889	-4.202519616075444	-4.202519616075518	-0.03200971720667605	0.006448715267720615	-0.01471494427917475	-0.17147635532455	-1.111905624027243e-08	-3.552955391258726e-08	9.48852190654663e-08	-1.96213077249013e-09	-2.374440749115117e-08	1.076673251516468e-07	-2.457887576663824e-08
